{
  "asset": {
    "generator": "OpenSceneGraph 3.5.6",
    "version": "2.0"
  },
  "accessors": [
    {
      "type": "VEC3",
      "componentType": 5126,
      "count": 65531,
      "max": [
        7006.8505859375,
        977.225830078125,
        6784.583984375
      ],
      "min": [
        -7614.61376953125,
        -50.00749969482422,
        -6675.169921875
      ],
      "bufferView": 0,
      "byteOffset": 0
    },
    {
      "type": "VEC3",
      "componentType": 5126,
      "count": 65531,
      "bufferView": 0,
      "byteOffset": 12
    },
    {
      "type": "VEC2",
      "componentType": 5126,
      "count": 65531,
      "bufferView": 0,
      "byteOffset": 24
    },
    {
      "type": "SCALAR",
      "componentType": 5123,
      "count": 109674,
      "bufferView": 1,
      "byteOffset": 0
    },
    {
      "type": "SCALAR",
      "componentType": 5123,
      "count": 16005,
      "bufferView": 1,
      "byteOffset": 219348
    },
    {
      "type": "SCALAR",
      "componentType": 5123,
      "count": 119589,
      "bufferView": 1,
      "byteOffset": 251360
    },
    {
      "type": "SCALAR",
      "componentType": 5123,
      "count": 858,
      "bufferView": 1,
      "byteOffset": 490540
    },
    {
      "type": "SCALAR",
      "componentType": 5123,
      "count": 43458,
      "bufferView": 1,
      "byteOffset": 492256
    },
    {
      "type": "SCALAR",
      "componentType": 5123,
      "count": 342,
      "bufferView": 1,
      "byteOffset": 579172
    },
    {
      "type": "SCALAR",
      "componentType": 5123,
      "count": 122352,
      "bufferView": 1,
      "byteOffset": 579856
    },
    {
      "type": "SCALAR",
      "componentType": 5123,
      "count": 3639,
      "bufferView": 1,
      "byteOffset": 824560
    },
    {
      "type": "SCALAR",
      "componentType": 5123,
      "count": 30267,
      "bufferView": 1,
      "byteOffset": 831840
    },
    {
      "type": "SCALAR",
      "componentType": 5123,
      "count": 384,
      "bufferView": 1,
      "byteOffset": 892376
    },
    {
      "type": "SCALAR",
      "componentType": 5123,
      "count": 120819,
      "bufferView": 1,
      "byteOffset": 893144
    },
    {
      "type": "SCALAR",
      "componentType": 5123,
      "count": 15057,
      "bufferView": 1,
      "byteOffset": 1134784
    },
    {
      "type": "SCALAR",
      "componentType": 5123,
      "count": 122748,
      "bufferView": 1,
      "byteOffset": 1164900
    },
    {
      "type": "SCALAR",
      "componentType": 5123,
      "count": 1200,
      "bufferView": 1,
      "byteOffset": 1410396
    },
    {
      "type": "SCALAR",
      "componentType": 5123,
      "count": 119280,
      "bufferView": 1,
      "byteOffset": 1412796
    },
    {
      "type": "SCALAR",
      "componentType": 5123,
      "count": 1113,
      "bufferView": 1,
      "byteOffset": 1651356
    },
    {
      "type": "SCALAR",
      "componentType": 5123,
      "count": 121392,
      "bufferView": 1,
      "byteOffset": 1653584
    },
    {
      "type": "SCALAR",
      "componentType": 5123,
      "count": 1017,
      "bufferView": 1,
      "byteOffset": 1896368
    },
    {
      "type": "SCALAR",
      "componentType": 5123,
      "count": 103002,
      "bufferView": 1,
      "byteOffset": 1898404
    },
    {
      "type": "SCALAR",
      "componentType": 5123,
      "count": 2379,
      "bufferView": 1,
      "byteOffset": 2104408
    },
    {
      "type": "SCALAR",
      "componentType": 5123,
      "count": 123633,
      "bufferView": 1,
      "byteOffset": 2109168
    },
    {
      "type": "SCALAR",
      "componentType": 5123,
      "count": 9654,
      "bufferView": 1,
      "byteOffset": 2356436
    },
    {
      "type": "SCALAR",
      "componentType": 5123,
      "count": 122883,
      "bufferView": 1,
      "byteOffset": 2375744
    },
    {
      "type": "SCALAR",
      "componentType": 5123,
      "count": 1182,
      "bufferView": 1,
      "byteOffset": 2621512
    },
    {
      "type": "SCALAR",
      "componentType": 5123,
      "count": 126207,
      "bufferView": 1,
      "byteOffset": 2623876
    },
    {
      "type": "SCALAR",
      "componentType": 5123,
      "count": 1323,
      "bufferView": 1,
      "byteOffset": 2876292
    },
    {
      "type": "SCALAR",
      "componentType": 5123,
      "count": 66846,
      "bufferView": 1,
      "byteOffset": 2878940
    },
    {
      "type": "SCALAR",
      "componentType": 5123,
      "count": 1434,
      "bufferView": 1,
      "byteOffset": 3012632
    },
    {
      "type": "SCALAR",
      "componentType": 5123,
      "count": 2250,
      "bufferView": 1,
      "byteOffset": 3015500
    },
    {
      "type": "SCALAR",
      "componentType": 5123,
      "count": 42,
      "bufferView": 1,
      "byteOffset": 3020000
    },
    {
      "type": "SCALAR",
      "componentType": 5123,
      "count": 90066,
      "bufferView": 1,
      "byteOffset": 3020084
    },
    {
      "type": "SCALAR",
      "componentType": 5123,
      "count": 3462,
      "bufferView": 1,
      "byteOffset": 3200216
    },
    {
      "type": "SCALAR",
      "componentType": 5123,
      "count": 270,
      "bufferView": 1,
      "byteOffset": 3207140
    },
    {
      "type": "VEC3",
      "componentType": 5126,
      "count": 65531,
      "max": [
        7006.8505859375,
        977.225830078125,
        6784.583984375
      ],
      "min": [
        -7614.61376953125,
        -50.00749969482422,
        -6675.169921875
      ],
      "bufferView": 2,
      "byteOffset": 0
    },
    {
      "type": "VEC3",
      "componentType": 5126,
      "count": 65531,
      "bufferView": 2,
      "byteOffset": 12
    },
    {
      "type": "VEC2",
      "componentType": 5126,
      "count": 65531,
      "bufferView": 2,
      "byteOffset": 24
    },
    {
      "type": "VEC3",
      "componentType": 5126,
      "count": 65531,
      "max": [
        5484.42333984375,
        711.7068481445312,
        6048.04345703125
      ],
      "min": [
        -7614.61376953125,
        -50.00749969482422,
        -6630.92529296875
      ],
      "bufferView": 3,
      "byteOffset": 0
    },
    {
      "type": "VEC3",
      "componentType": 5126,
      "count": 65531,
      "bufferView": 3,
      "byteOffset": 12
    },
    {
      "type": "VEC2",
      "componentType": 5126,
      "count": 65531,
      "bufferView": 3,
      "byteOffset": 24
    },
    {
      "type": "VEC3",
      "componentType": 5126,
      "count": 65531,
      "max": [
        5484.42333984375,
        711.7068481445312,
        6048.04345703125
      ],
      "min": [
        -7614.61376953125,
        -50.00749969482422,
        -6630.92529296875
      ],
      "bufferView": 4,
      "byteOffset": 0
    },
    {
      "type": "VEC3",
      "componentType": 5126,
      "count": 65531,
      "bufferView": 4,
      "byteOffset": 12
    },
    {
      "type": "VEC2",
      "componentType": 5126,
      "count": 65531,
      "bufferView": 4,
      "byteOffset": 24
    },
    {
      "type": "VEC3",
      "componentType": 5126,
      "count": 22785,
      "max": [
        6692.1240234375,
        917.3192138671875,
        6787.51171875
      ],
      "min": [
        -7593.38232421875,
        -24.998844146728516,
        -6675.169921875
      ],
      "bufferView": 5,
      "byteOffset": 0
    },
    {
      "type": "VEC3",
      "componentType": 5126,
      "count": 22785,
      "bufferView": 5,
      "byteOffset": 12
    },
    {
      "type": "VEC2",
      "componentType": 5126,
      "count": 22785,
      "bufferView": 5,
      "byteOffset": 24
    },
    {
      "type": "VEC3",
      "componentType": 5126,
      "count": 22785,
      "max": [
        6692.1240234375,
        917.3192138671875,
        6787.51171875
      ],
      "min": [
        -7593.38232421875,
        -24.998844146728516,
        -6675.169921875
      ],
      "bufferView": 6,
      "byteOffset": 0
    },
    {
      "type": "VEC3",
      "componentType": 5126,
      "count": 22785,
      "bufferView": 6,
      "byteOffset": 12
    },
    {
      "type": "VEC2",
      "componentType": 5126,
      "count": 22785,
      "bufferView": 6,
      "byteOffset": 24
    },
    {
      "type": "VEC3",
      "componentType": 5126,
      "count": 65533,
      "max": [
        6654.08935546875,
        3737.26123046875,
        5932.259765625
      ],
      "min": [
        4945.89990234375,
        -4.50068998336792,
        2200
      ],
      "bufferView": 7,
      "byteOffset": 0
    },
    {
      "type": "VEC3",
      "componentType": 5126,
      "count": 65533,
      "bufferView": 7,
      "byteOffset": 12
    },
    {
      "type": "VEC2",
      "componentType": 5126,
      "count": 65533,
      "bufferView": 7,
      "byteOffset": 24
    },
    {
      "type": "VEC3",
      "componentType": 5126,
      "count": 65533,
      "max": [
        6654.08935546875,
        3737.26123046875,
        5932.259765625
      ],
      "min": [
        4945.89990234375,
        -4.50068998336792,
        2200
      ],
      "bufferView": 8,
      "byteOffset": 0
    },
    {
      "type": "VEC3",
      "componentType": 5126,
      "count": 65533,
      "bufferView": 8,
      "byteOffset": 12
    },
    {
      "type": "VEC2",
      "componentType": 5126,
      "count": 65533,
      "bufferView": 8,
      "byteOffset": 24
    },
    {
      "type": "VEC3",
      "componentType": 5126,
      "count": 16621,
      "max": [
        6646.16552734375,
        3460.800048828125,
        5932.259765625
      ],
      "min": [
        4947.8291015625,
        -4.50068998336792,
        2229.95654296875
      ],
      "bufferView": 9,
      "byteOffset": 0
    },
    {
      "type": "VEC3",
      "componentType": 5126,
      "count": 16621,
      "bufferView": 9,
      "byteOffset": 12
    },
    {
      "type": "VEC2",
      "componentType": 5126,
      "count": 16621,
      "bufferView": 9,
      "byteOffset": 24
    },
    {
      "type": "VEC3",
      "componentType": 5126,
      "count": 16621,
      "max": [
        6646.16552734375,
        3460.800048828125,
        5932.259765625
      ],
      "min": [
        4947.8291015625,
        -4.50068998336792,
        2229.95654296875
      ],
      "bufferView": 10,
      "byteOffset": 0
    },
    {
      "type": "VEC3",
      "componentType": 5126,
      "count": 16621,
      "bufferView": 10,
      "byteOffset": 12
    },
    {
      "type": "VEC2",
      "componentType": 5126,
      "count": 16621,
      "bufferView": 10,
      "byteOffset": 24
    },
    {
      "type": "VEC3",
      "componentType": 5126,
      "count": 65533,
      "max": [
        5199.9892578125,
        2892.463623046875,
        708.6705322265625
      ],
      "min": [
        -2353.22998046875,
        -203.58200073242188,
        -3448.02001953125
      ],
      "bufferView": 11,
      "byteOffset": 0
    },
    {
      "type": "VEC3",
      "componentType": 5126,
      "count": 65533,
      "bufferView": 11,
      "byteOffset": 12
    },
    {
      "type": "VEC2",
      "componentType": 5126,
      "count": 65533,
      "bufferView": 11,
      "byteOffset": 24
    },
    {
      "type": "VEC3",
      "componentType": 5126,
      "count": 65533,
      "max": [
        5199.9892578125,
        2892.463623046875,
        708.6705322265625
      ],
      "min": [
        -2353.22998046875,
        -203.58200073242188,
        -3448.02001953125
      ],
      "bufferView": 12,
      "byteOffset": 0
    },
    {
      "type": "VEC3",
      "componentType": 5126,
      "count": 65533,
      "bufferView": 12,
      "byteOffset": 12
    },
    {
      "type": "VEC2",
      "componentType": 5126,
      "count": 65533,
      "bufferView": 12,
      "byteOffset": 24
    },
    {
      "type": "VEC3",
      "componentType": 5126,
      "count": 65531,
      "max": [
        3209.279296875,
        2084.224365234375,
        654.8836059570312
      ],
      "min": [
        -2353.22998046875,
        -203.58200073242188,
        -1205.967041015625
      ],
      "bufferView": 13,
      "byteOffset": 0
    },
    {
      "type": "VEC3",
      "componentType": 5126,
      "count": 65531,
      "bufferView": 13,
      "byteOffset": 12
    },
    {
      "type": "VEC2",
      "componentType": 5126,
      "count": 65531,
      "bufferView": 13,
      "byteOffset": 24
    },
    {
      "type": "VEC3",
      "componentType": 5126,
      "count": 65531,
      "max": [
        3209.279296875,
        2084.224365234375,
        654.8836059570312
      ],
      "min": [
        -2353.22998046875,
        -203.58200073242188,
        -1205.967041015625
      ],
      "bufferView": 14,
      "byteOffset": 0
    },
    {
      "type": "VEC3",
      "componentType": 5126,
      "count": 65531,
      "bufferView": 14,
      "byteOffset": 12
    },
    {
      "type": "VEC2",
      "componentType": 5126,
      "count": 65531,
      "bufferView": 14,
      "byteOffset": 24
    },
    {
      "type": "VEC3",
      "componentType": 5126,
      "count": 65532,
      "max": [
        4887.18310546875,
        2892.463623046875,
        708.6705322265625
      ],
      "min": [
        -2242.122802734375,
        -203.58200073242188,
        -3403.36669921875
      ],
      "bufferView": 15,
      "byteOffset": 0
    },
    {
      "type": "VEC3",
      "componentType": 5126,
      "count": 65532,
      "bufferView": 15,
      "byteOffset": 12
    },
    {
      "type": "VEC2",
      "componentType": 5126,
      "count": 65532,
      "bufferView": 15,
      "byteOffset": 24
    },
    {
      "type": "VEC3",
      "componentType": 5126,
      "count": 65532,
      "max": [
        4887.18310546875,
        2892.463623046875,
        708.6705322265625
      ],
      "min": [
        -2242.122802734375,
        -203.58200073242188,
        -3403.36669921875
      ],
      "bufferView": 16,
      "byteOffset": 0
    },
    {
      "type": "VEC3",
      "componentType": 5126,
      "count": 65532,
      "bufferView": 16,
      "byteOffset": 12
    },
    {
      "type": "VEC2",
      "componentType": 5126,
      "count": 65532,
      "bufferView": 16,
      "byteOffset": 24
    },
    {
      "type": "VEC3",
      "componentType": 5126,
      "count": 65533,
      "max": [
        5199.9892578125,
        2234.1748046875,
        -1597.0640869140625
      ],
      "min": [
        -2214.230712890625,
        -203.58200073242188,
        -3420.238525390625
      ],
      "bufferView": 17,
      "byteOffset": 0
    },
    {
      "type": "VEC3",
      "componentType": 5126,
      "count": 65533,
      "bufferView": 17,
      "byteOffset": 12
    },
    {
      "type": "VEC2",
      "componentType": 5126,
      "count": 65533,
      "bufferView": 17,
      "byteOffset": 24
    },
    {
      "type": "VEC3",
      "componentType": 5126,
      "count": 65533,
      "max": [
        5199.9892578125,
        2234.1748046875,
        -1597.0640869140625
      ],
      "min": [
        -2214.230712890625,
        -203.58200073242188,
        -3420.238525390625
      ],
      "bufferView": 18,
      "byteOffset": 0
    },
    {
      "type": "VEC3",
      "componentType": 5126,
      "count": 65533,
      "bufferView": 18,
      "byteOffset": 12
    },
    {
      "type": "VEC2",
      "componentType": 5126,
      "count": 65533,
      "bufferView": 18,
      "byteOffset": 24
    },
    {
      "type": "VEC3",
      "componentType": 5126,
      "count": 54568,
      "max": [
        5170.02294921875,
        2619.964111328125,
        657.2938842773438
      ],
      "min": [
        -2353.22998046875,
        -175.04701232910156,
        -3448.02001953125
      ],
      "bufferView": 19,
      "byteOffset": 0
    },
    {
      "type": "VEC3",
      "componentType": 5126,
      "count": 54568,
      "bufferView": 19,
      "byteOffset": 12
    },
    {
      "type": "VEC2",
      "componentType": 5126,
      "count": 54568,
      "bufferView": 19,
      "byteOffset": 24
    },
    {
      "type": "VEC3",
      "componentType": 5126,
      "count": 54568,
      "max": [
        5170.02294921875,
        2619.964111328125,
        657.2938842773438
      ],
      "min": [
        -2353.22998046875,
        -175.04701232910156,
        -3448.02001953125
      ],
      "bufferView": 20,
      "byteOffset": 0
    },
    {
      "type": "VEC3",
      "componentType": 5126,
      "count": 54568,
      "bufferView": 20,
      "byteOffset": 12
    },
    {
      "type": "VEC2",
      "componentType": 5126,
      "count": 54568,
      "bufferView": 20,
      "byteOffset": 24
    },
    {
      "type": "VEC3",
      "componentType": 5126,
      "count": 65531,
      "max": [
        6180.06982421875,
        3237.25,
        4254.18212890625
      ],
      "min": [
        -7441.013671875,
        -203.5765838623047,
        -7365.5224609375
      ],
      "bufferView": 21,
      "byteOffset": 0
    },
    {
      "type": "VEC3",
      "componentType": 5126,
      "count": 65531,
      "bufferView": 21,
      "byteOffset": 12
    },
    {
      "type": "VEC2",
      "componentType": 5126,
      "count": 65531,
      "bufferView": 21,
      "byteOffset": 24
    },
    {
      "type": "VEC3",
      "componentType": 5126,
      "count": 65531,
      "max": [
        6180.06982421875,
        3237.25,
        4254.18212890625
      ],
      "min": [
        -7441.013671875,
        -203.5765838623047,
        -7365.5224609375
      ],
      "bufferView": 22,
      "byteOffset": 0
    },
    {
      "type": "VEC3",
      "componentType": 5126,
      "count": 65531,
      "bufferView": 22,
      "byteOffset": 12
    },
    {
      "type": "VEC2",
      "componentType": 5126,
      "count": 65531,
      "bufferView": 22,
      "byteOffset": 24
    },
    {
      "type": "VEC3",
      "componentType": 5126,
      "count": 65533,
      "max": [
        -2800.045654296875,
        3179.6083984375,
        4254.18212890625
      ],
      "min": [
        -7199.97314453125,
        -7.429898262023926,
        -7012.21728515625
      ],
      "bufferView": 23,
      "byteOffset": 0
    },
    {
      "type": "VEC3",
      "componentType": 5126,
      "count": 65533,
      "bufferView": 23,
      "byteOffset": 12
    },
    {
      "type": "VEC2",
      "componentType": 5126,
      "count": 65533,
      "bufferView": 23,
      "byteOffset": 24
    },
    {
      "type": "VEC3",
      "componentType": 5126,
      "count": 65533,
      "max": [
        -2800.045654296875,
        3179.6083984375,
        4254.18212890625
      ],
      "min": [
        -7199.97314453125,
        -7.429898262023926,
        -7012.21728515625
      ],
      "bufferView": 24,
      "byteOffset": 0
    },
    {
      "type": "VEC3",
      "componentType": 5126,
      "count": 65533,
      "bufferView": 24,
      "byteOffset": 12
    },
    {
      "type": "VEC2",
      "componentType": 5126,
      "count": 65533,
      "bufferView": 24,
      "byteOffset": 24
    },
    {
      "type": "VEC3",
      "componentType": 5126,
      "count": 65532,
      "max": [
        6200.05224609375,
        2404.616455078125,
        -912.6613159179688
      ],
      "min": [
        -7441.013671875,
        -203.5765838623047,
        -7235.716796875
      ],
      "bufferView": 25,
      "byteOffset": 0
    },
    {
      "type": "VEC3",
      "componentType": 5126,
      "count": 65532,
      "bufferView": 25,
      "byteOffset": 12
    },
    {
      "type": "VEC2",
      "componentType": 5126,
      "count": 65532,
      "bufferView": 25,
      "byteOffset": 24
    },
    {
      "type": "VEC3",
      "componentType": 5126,
      "count": 65532,
      "max": [
        6200.05224609375,
        2404.616455078125,
        -912.6613159179688
      ],
      "min": [
        -7441.013671875,
        -203.5765838623047,
        -7235.716796875
      ],
      "bufferView": 26,
      "byteOffset": 0
    },
    {
      "type": "VEC3",
      "componentType": 5126,
      "count": 65532,
      "bufferView": 26,
      "byteOffset": 12
    },
    {
      "type": "VEC2",
      "componentType": 5126,
      "count": 65532,
      "bufferView": 26,
      "byteOffset": 24
    },
    {
      "type": "VEC3",
      "componentType": 5126,
      "count": 32875,
      "max": [
        6200.05224609375,
        2960.810302734375,
        4246.048828125
      ],
      "min": [
        -7213.294921875,
        -17.503341674804688,
        -7383.08984375
      ],
      "bufferView": 27,
      "byteOffset": 0
    },
    {
      "type": "VEC3",
      "componentType": 5126,
      "count": 32875,
      "bufferView": 27,
      "byteOffset": 12
    },
    {
      "type": "VEC2",
      "componentType": 5126,
      "count": 32875,
      "bufferView": 27,
      "byteOffset": 24
    },
    {
      "type": "VEC3",
      "componentType": 5126,
      "count": 32875,
      "max": [
        6200.05224609375,
        2960.810302734375,
        4246.048828125
      ],
      "min": [
        -7213.294921875,
        -17.503341674804688,
        -7383.08984375
      ],
      "bufferView": 28,
      "byteOffset": 0
    },
    {
      "type": "VEC3",
      "componentType": 5126,
      "count": 32875,
      "bufferView": 28,
      "byteOffset": 12
    },
    {
      "type": "VEC2",
      "componentType": 5126,
      "count": 32875,
      "bufferView": 28,
      "byteOffset": 24
    },
    {
      "type": "VEC3",
      "componentType": 5126,
      "count": 1353,
      "max": [
        7000.185546875,
        0,
        6999.94921875
      ],
      "min": [
        -7799.87353515625,
        0,
        -7400
      ],
      "bufferView": 29,
      "byteOffset": 0
    },
    {
      "type": "VEC3",
      "componentType": 5126,
      "count": 1353,
      "bufferView": 29,
      "byteOffset": 12
    },
    {
      "type": "VEC2",
      "componentType": 5126,
      "count": 1353,
      "bufferView": 29,
      "byteOffset": 24
    },
    {
      "type": "VEC3",
      "componentType": 5126,
      "count": 1353,
      "max": [
        7000.185546875,
        0,
        6999.94921875
      ],
      "min": [
        -7799.87353515625,
        0,
        -7400
      ],
      "bufferView": 30,
      "byteOffset": 0
    },
    {
      "type": "VEC3",
      "componentType": 5126,
      "count": 1353,
      "bufferView": 30,
      "byteOffset": 12
    },
    {
      "type": "VEC2",
      "componentType": 5126,
      "count": 1353,
      "bufferView": 30,
      "byteOffset": 24
    },
    {
      "type": "VEC3",
      "componentType": 5126,
      "count": 40292,
      "max": [
        6404.876953125,
        203.43051147460938,
        7004.82958984375
      ],
      "min": [
        -8605,
        -400,
        -3655.159912109375
      ],
      "bufferView": 31,
      "byteOffset": 0
    },
    {
      "type": "VEC3",
      "componentType": 5126,
      "count": 40292,
      "bufferView": 31,
      "byteOffset": 12
    },
    {
      "type": "VEC2",
      "componentType": 5126,
      "count": 40292,
      "bufferView": 31,
      "byteOffset": 24
    },
    {
      "type": "VEC3",
      "componentType": 5126,
      "count": 40292,
      "max": [
        6404.876953125,
        203.43051147460938,
        7004.82958984375
      ],
      "min": [
        -8605,
        -400,
        -3655.159912109375
      ],
      "bufferView": 32,
      "byteOffset": 0
    },
    {
      "type": "VEC3",
      "componentType": 5126,
      "count": 40292,
      "bufferView": 32,
      "byteOffset": 12
    },
    {
      "type": "VEC2",
      "componentType": 5126,
      "count": 40292,
      "bufferView": 32,
      "byteOffset": 24
    },
    {
      "type": "VEC3",
      "componentType": 5126,
      "count": 180,
      "max": [
        7000.19287109375,
        -0.008824000135064125,
        6999.94921875
      ],
      "min": [
        -7600.0400390625,
        -400,
        -7400
      ],
      "bufferView": 33,
      "byteOffset": 0
    },
    {
      "type": "VEC3",
      "componentType": 5126,
      "count": 180,
      "bufferView": 33,
      "byteOffset": 12
    },
    {
      "type": "VEC2",
      "componentType": 5126,
      "count": 180,
      "bufferView": 33,
      "byteOffset": 24
    }
  ],
  "bufferViews": [
    {
      "buffer": 0,
      "byteOffset": 0,
      "byteLength": 2096992,
      "byteStride": 32,
      "target": 34962
    },
    {
      "buffer": 0,
      "byteOffset": 2096992,
      "byteLength": 3207680,
      "target": 34963
    },
    {
      "buffer": 0,
      "byteOffset": 5304672,
      "byteLength": 2096992,
      "byteStride": 32,
      "target": 34962
    },
    {
      "buffer": 0,
      "byteOffset": 7401664,
      "byteLength": 2096992,
      "byteStride": 32,
      "target": 34962
    },
    {
      "buffer": 0,
      "byteOffset": 9498656,
      "byteLength": 2096992,
      "byteStride": 32,
      "target": 34962
    },
    {
      "buffer": 0,
      "byteOffset": 11595648,
      "byteLength": 729120,
      "byteStride": 32,
      "target": 34962
    },
    {
      "buffer": 0,
      "byteOffset": 12324768,
      "byteLength": 729120,
      "byteStride": 32,
      "target": 34962
    },
    {
      "buffer": 0,
      "byteOffset": 13053888,
      "byteLength": 2097056,
      "byteStride": 32,
      "target": 34962
    },
    {
      "buffer": 0,
      "byteOffset": 15150944,
      "byteLength": 2097056,
      "byteStride": 32,
      "target": 34962
    },
    {
      "buffer": 0,
      "byteOffset": 17248000,
      "byteLength": 531872,
      "byteStride": 32,
      "target": 34962
    },
    {
      "buffer": 0,
      "byteOffset": 17779872,
      "byteLength": 531872,
      "byteStride": 32,
      "target": 34962
    },
    {
      "buffer": 0,
      "byteOffset": 18311744,
      "byteLength": 2097056,
      "byteStride": 32,
      "target": 34962
    },
    {
      "buffer": 0,
      "byteOffset": 20408800,
      "byteLength": 2097056,
      "byteStride": 32,
      "target": 34962
    },
    {
      "buffer": 0,
      "byteOffset": 22505856,
      "byteLength": 2096992,
      "byteStride": 32,
      "target": 34962
    },
    {
      "buffer": 0,
      "byteOffset": 24602848,
      "byteLength": 2096992,
      "byteStride": 32,
      "target": 34962
    },
    {
      "buffer": 0,
      "byteOffset": 26699840,
      "byteLength": 2097024,
      "byteStride": 32,
      "target": 34962
    },
    {
      "buffer": 0,
      "byteOffset": 28796864,
      "byteLength": 2097024,
      "byteStride": 32,
      "target": 34962
    },
    {
      "buffer": 0,
      "byteOffset": 30893888,
      "byteLength": 2097056,
      "byteStride": 32,
      "target": 34962
    },
    {
      "buffer": 0,
      "byteOffset": 32990944,
      "byteLength": 2097056,
      "byteStride": 32,
      "target": 34962
    },
    {
      "buffer": 0,
      "byteOffset": 35088000,
      "byteLength": 1746176,
      "byteStride": 32,
      "target": 34962
    },
    {
      "buffer": 0,
      "byteOffset": 36834176,
      "byteLength": 1746176,
      "byteStride": 32,
      "target": 34962
    },
    {
      "buffer": 0,
      "byteOffset": 38580352,
      "byteLength": 2096992,
      "byteStride": 32,
      "target": 34962
    },
    {
      "buffer": 0,
      "byteOffset": 40677344,
      "byteLength": 2096992,
      "byteStride": 32,
      "target": 34962
    },
    {
      "buffer": 0,
      "byteOffset": 42774336,
      "byteLength": 2097056,
      "byteStride": 32,
      "target": 34962
    },
    {
      "buffer": 0,
      "byteOffset": 44871392,
      "byteLength": 2097056,
      "byteStride": 32,
      "target": 34962
    },
    {
      "buffer": 0,
      "byteOffset": 46968448,
      "byteLength": 2097024,
      "byteStride": 32,
      "target": 34962
    },
    {
      "buffer": 0,
      "byteOffset": 49065472,
      "byteLength": 2097024,
      "byteStride": 32,
      "target": 34962
    },
    {
      "buffer": 0,
      "byteOffset": 51162496,
      "byteLength": 1052000,
      "byteStride": 32,
      "target": 34962
    },
    {
      "buffer": 0,
      "byteOffset": 52214496,
      "byteLength": 1052000,
      "byteStride": 32,
      "target": 34962
    },
    {
      "buffer": 0,
      "byteOffset": 53266496,
      "byteLength": 43296,
      "byteStride": 32,
      "target": 34962
    },
    {
      "buffer": 0,
      "byteOffset": 53309792,
      "byteLength": 43296,
      "byteStride": 32,
      "target": 34962
    },
    {
      "buffer": 0,
      "byteOffset": 53353088,
      "byteLength": 1289344,
      "byteStride": 32,
      "target": 34962
    },
    {
      "buffer": 0,
      "byteOffset": 54642432,
      "byteLength": 1289344,
      "byteStride": 32,
      "target": 34962
    },
    {
      "buffer": 0,
      "byteOffset": 55931776,
      "byteLength": 5760,
      "byteStride": 32,
      "target": 34962
    }
  ],
  "samplers": [
    {
      "magFilter": 9729,
      "minFilter": 9987,
      "wrapS": 10497,
      "wrapT": 10497
    }
  ],
  "textures": [
    {
      "source": 0,
      "sampler": 0
    },
    {
      "source": 2,
      "sampler": 0
    },
    {
      "source": 1,
      "sampler": 0
    },
    {
      "source": 4,
      "sampler": 0
    },
    {
      "source": 5,
      "sampler": 0
    },
    {
      "source": 3,
      "sampler": 0
    },
    {
      "source": 6,
      "sampler": 0
    }
  ],
  "images": [
    {
      "name": "city_tex.tga.png",
      "mimeType": "image/png",
      "uri": "images/city_tex.tga.png"
    },
    {
      "name": "city_metal.tga.png_metalrough",
      "mimeType": "image/png",
      "uri": "images/city_metal.tga.png_metalrough.png"
    },
    {
      "name": "city_glow.tga.png",
      "mimeType": "image/png",
      "uri": "images/city_glow.tga.png"
    },
    {
      "name": "city_metal.tga.png",
      "mimeType": "image/png",
      "uri": "images/city_metal.tga.png"
    },
    {
      "name": "sidewalk_tile.tga.png",
      "mimeType": "image/png",
      "uri": "images/sidewalk_tile.tga.png"
    },
    {
      "name": "sidewalk_tile_metal.tga.png_metalrough",
      "mimeType": "image/png",
      "uri": "images/sidewalk_tile_metal.tga.png_metalrough.png"
    },
    {
      "name": "sidewalk_tile_metal.tga.png",
      "mimeType": "image/png",
      "uri": "images/sidewalk_tile_metal.tga.png"
    }
  ],
  "buffers": [
    {
      "uri": "City_Set_-_Proto_Series.bin",
      "byteLength": 55937536
    }
  ],
  "materials": [
    {
      "name": "city_mat.005",
      "doubleSided": true,
      "pbrMetallicRoughness": {
        "baseColorTexture": {
          "index": 0
        },
        "metallicRoughnessTexture": {
          "index": 2
        }
      },
      "emissiveFactor": [
        1,
        1,
        1
      ],
      "emissiveTexture": {
        "index": 1
      },
      "extensions": {
        "KHR_materials_specular": {
          "specularColorFactor": [
            0,
            0,
            0
          ],
          "specularTexture": {
            "index": 5
          }
        }
      }
    },
    {
      "name": "city_mat.004",
      "doubleSided": true,
      "pbrMetallicRoughness": {
        "baseColorTexture": {
          "index": 0
        },
        "metallicRoughnessTexture": {
          "index": 2
        }
      },
      "emissiveFactor": [
        1,
        1,
        1
      ],
      "emissiveTexture": {
        "index": 1
      },
      "extensions": {
        "KHR_materials_specular": {
          "specularColorFactor": [
            0,
            0,
            0
          ],
          "specularTexture": {
            "index": 5
          }
        }
      }
    },
    {
      "name": "city_mat.003",
      "doubleSided": true,
      "pbrMetallicRoughness": {
        "baseColorTexture": {
          "index": 0
        },
        "metallicRoughnessTexture": {
          "index": 2
        }
      },
      "emissiveFactor": [
        1,
        1,
        1
      ],
      "emissiveTexture": {
        "index": 1
      },
      "extensions": {
        "KHR_materials_specular": {
          "specularColorFactor": [
            0,
            0,
            0
          ],
          "specularTexture": {
            "index": 5
          }
        }
      }
    },
    {
      "name": "city_mat.002",
      "doubleSided": true,
      "pbrMetallicRoughness": {
        "baseColorTexture": {
          "index": 0
        },
        "metallicRoughnessTexture": {
          "index": 2
        }
      },
      "emissiveFactor": [
        1,
        1,
        1
      ],
      "emissiveTexture": {
        "index": 1
      },
      "extensions": {
        "KHR_materials_specular": {
          "specularColorFactor": [
            0,
            0,
            0
          ],
          "specularTexture": {
            "index": 5
          }
        }
      }
    },
    {
      "name": "sidewalk_mat",
      "doubleSided": true,
      "pbrMetallicRoughness": {
        "baseColorTexture": {
          "index": 3
        },
        "metallicRoughnessTexture": {
          "index": 4
        }
      },
      "extensions": {
        "KHR_materials_specular": {
          "specularColorFactor": [
            0,
            0,
            0
          ],
          "specularTexture": {
            "index": 6
          }
        }
      }
    },
    {
      "name": "city_mat.001",
      "doubleSided": true,
      "pbrMetallicRoughness": {
        "baseColorTexture": {
          "index": 0
        },
        "metallicRoughnessTexture": {
          "index": 2
        }
      },
      "extensions": {
        "KHR_materials_specular": {
          "specularColorFactor": [
            0,
            0,
            0
          ],
          "specularTexture": {
            "index": 5
          }
        }
      }
    },
    {
      "name": "city_mat",
      "doubleSided": true,
      "pbrMetallicRoughness": {
        "baseColorTexture": {
          "index": 0
        },
        "metallicRoughnessTexture": {
          "index": 2
        }
      },
      "extensions": {
        "KHR_materials_specular": {
          "specularColorFactor": [
            0,
            0,
            0
          ],
          "specularTexture": {
            "index": 5
          }
        }
      }
    }
  ],
  "meshes": [
    {
      "name": "city_sample_streets_city_mat.005_0_0",
      "primitives": [
        {
          "attributes": {
            "POSITION": 0,
            "NORMAL": 1,
            "TEXCOORD_0": 2
          },
          "mode": 4,
          "material": 0,
          "indices": 3
        }
      ]
    },
    {
      "name": "city_sample_streets_city_mat.005_0_1",
      "primitives": [
        {
          "attributes": {
            "POSITION": 36,
            "NORMAL": 37,
            "TEXCOORD_0": 38
          },
          "mode": 4,
          "material": 0,
          "indices": 4
        }
      ]
    },
    {
      "name": "city_sample_streets_city_mat.005_0_0",
      "primitives": [
        {
          "attributes": {
            "POSITION": 39,
            "NORMAL": 40,
            "TEXCOORD_0": 41
          },
          "mode": 4,
          "material": 0,
          "indices": 5
        }
      ]
    },
    {
      "name": "city_sample_streets_city_mat.005_0_1",
      "primitives": [
        {
          "attributes": {
            "POSITION": 42,
            "NORMAL": 43,
            "TEXCOORD_0": 44
          },
          "mode": 4,
          "material": 0,
          "indices": 6
        }
      ]
    },
    {
      "name": "city_sample_streets_city_mat.005_0_0",
      "primitives": [
        {
          "attributes": {
            "POSITION": 45,
            "NORMAL": 46,
            "TEXCOORD_0": 47
          },
          "mode": 4,
          "material": 0,
          "indices": 7
        }
      ]
    },
    {
      "name": "city_sample_streets_city_mat.005_0_1",
      "primitives": [
        {
          "attributes": {
            "POSITION": 48,
            "NORMAL": 49,
            "TEXCOORD_0": 50
          },
          "mode": 4,
          "material": 0,
          "indices": 8
        }
      ]
    },
    {
      "name": "city_sample_houses_3_city_mat.004_0_0",
      "primitives": [
        {
          "attributes": {
            "POSITION": 51,
            "NORMAL": 52,
            "TEXCOORD_0": 53
          },
          "mode": 4,
          "material": 1,
          "indices": 9
        }
      ]
    },
    {
      "name": "city_sample_houses_3_city_mat.004_0_1",
      "primitives": [
        {
          "attributes": {
            "POSITION": 54,
            "NORMAL": 55,
            "TEXCOORD_0": 56
          },
          "mode": 4,
          "material": 1,
          "indices": 10
        }
      ]
    },
    {
      "name": "city_sample_houses_3_city_mat.004_0_0",
      "primitives": [
        {
          "attributes": {
            "POSITION": 57,
            "NORMAL": 58,
            "TEXCOORD_0": 59
          },
          "mode": 4,
          "material": 1,
          "indices": 11
        }
      ]
    },
    {
      "name": "city_sample_houses_3_city_mat.004_0_1",
      "primitives": [
        {
          "attributes": {
            "POSITION": 60,
            "NORMAL": 61,
            "TEXCOORD_0": 62
          },
          "mode": 4,
          "material": 1,
          "indices": 12
        }
      ]
    },
    {
      "name": "city_sample_houses_2_city_mat.003_0_0",
      "primitives": [
        {
          "attributes": {
            "POSITION": 63,
            "NORMAL": 64,
            "TEXCOORD_0": 65
          },
          "mode": 4,
          "material": 2,
          "indices": 13
        }
      ]
    },
    {
      "name": "city_sample_houses_2_city_mat.003_0_1",
      "primitives": [
        {
          "attributes": {
            "POSITION": 66,
            "NORMAL": 67,
            "TEXCOORD_0": 68
          },
          "mode": 4,
          "material": 2,
          "indices": 14
        }
      ]
    },
    {
      "name": "city_sample_houses_2_city_mat.003_0_0",
      "primitives": [
        {
          "attributes": {
            "POSITION": 69,
            "NORMAL": 70,
            "TEXCOORD_0": 71
          },
          "mode": 4,
          "material": 2,
          "indices": 15
        }
      ]
    },
    {
      "name": "city_sample_houses_2_city_mat.003_0_1",
      "primitives": [
        {
          "attributes": {
            "POSITION": 72,
            "NORMAL": 73,
            "TEXCOORD_0": 74
          },
          "mode": 4,
          "material": 2,
          "indices": 16
        }
      ]
    },
    {
      "name": "city_sample_houses_2_city_mat.003_0_0",
      "primitives": [
        {
          "attributes": {
            "POSITION": 75,
            "NORMAL": 76,
            "TEXCOORD_0": 77
          },
          "mode": 4,
          "material": 2,
          "indices": 17
        }
      ]
    },
    {
      "name": "city_sample_houses_2_city_mat.003_0_1",
      "primitives": [
        {
          "attributes": {
            "POSITION": 78,
            "NORMAL": 79,
            "TEXCOORD_0": 80
          },
          "mode": 4,
          "material": 2,
          "indices": 18
        }
      ]
    },
    {
      "name": "city_sample_houses_2_city_mat.003_0_0",
      "primitives": [
        {
          "attributes": {
            "POSITION": 81,
            "NORMAL": 82,
            "TEXCOORD_0": 83
          },
          "mode": 4,
          "material": 2,
          "indices": 19
        }
      ]
    },
    {
      "name": "city_sample_houses_2_city_mat.003_0_1",
      "primitives": [
        {
          "attributes": {
            "POSITION": 84,
            "NORMAL": 85,
            "TEXCOORD_0": 86
          },
          "mode": 4,
          "material": 2,
          "indices": 20
        }
      ]
    },
    {
      "name": "city_sample_houses_2_city_mat.003_0_0",
      "primitives": [
        {
          "attributes": {
            "POSITION": 87,
            "NORMAL": 88,
            "TEXCOORD_0": 89
          },
          "mode": 4,
          "material": 2,
          "indices": 21
        }
      ]
    },
    {
      "name": "city_sample_houses_2_city_mat.003_0_1",
      "primitives": [
        {
          "attributes": {
            "POSITION": 90,
            "NORMAL": 91,
            "TEXCOORD_0": 92
          },
          "mode": 4,
          "material": 2,
          "indices": 22
        }
      ]
    },
    {
      "name": "city_sample_houses_1_city_mat.002_0_0",
      "primitives": [
        {
          "attributes": {
            "POSITION": 93,
            "NORMAL": 94,
            "TEXCOORD_0": 95
          },
          "mode": 4,
          "material": 3,
          "indices": 23
        }
      ]
    },
    {
      "name": "city_sample_houses_1_city_mat.002_0_1",
      "primitives": [
        {
          "attributes": {
            "POSITION": 96,
            "NORMAL": 97,
            "TEXCOORD_0": 98
          },
          "mode": 4,
          "material": 3,
          "indices": 24
        }
      ]
    },
    {
      "name": "city_sample_houses_1_city_mat.002_0_0",
      "primitives": [
        {
          "attributes": {
            "POSITION": 99,
            "NORMAL": 100,
            "TEXCOORD_0": 101
          },
          "mode": 4,
          "material": 3,
          "indices": 25
        }
      ]
    },
    {
      "name": "city_sample_houses_1_city_mat.002_0_1",
      "primitives": [
        {
          "attributes": {
            "POSITION": 102,
            "NORMAL": 103,
            "TEXCOORD_0": 104
          },
          "mode": 4,
          "material": 3,
          "indices": 26
        }
      ]
    },
    {
      "name": "city_sample_houses_1_city_mat.002_0_0",
      "primitives": [
        {
          "attributes": {
            "POSITION": 105,
            "NORMAL": 106,
            "TEXCOORD_0": 107
          },
          "mode": 4,
          "material": 3,
          "indices": 27
        }
      ]
    },
    {
      "name": "city_sample_houses_1_city_mat.002_0_1",
      "primitives": [
        {
          "attributes": {
            "POSITION": 108,
            "NORMAL": 109,
            "TEXCOORD_0": 110
          },
          "mode": 4,
          "material": 3,
          "indices": 28
        }
      ]
    },
    {
      "name": "city_sample_houses_1_city_mat.002_0_0",
      "primitives": [
        {
          "attributes": {
            "POSITION": 111,
            "NORMAL": 112,
            "TEXCOORD_0": 113
          },
          "mode": 4,
          "material": 3,
          "indices": 29
        }
      ]
    },
    {
      "name": "city_sample_houses_1_city_mat.002_0_1",
      "primitives": [
        {
          "attributes": {
            "POSITION": 114,
            "NORMAL": 115,
            "TEXCOORD_0": 116
          },
          "mode": 4,
          "material": 3,
          "indices": 30
        }
      ]
    },
    {
      "name": "city_sample_floor_sidewalk_mat_0_0",
      "primitives": [
        {
          "attributes": {
            "POSITION": 117,
            "NORMAL": 118,
            "TEXCOORD_0": 119
          },
          "mode": 4,
          "material": 4,
          "indices": 31
        }
      ]
    },
    {
      "name": "city_sample_floor_sidewalk_mat_0_1",
      "primitives": [
        {
          "attributes": {
            "POSITION": 120,
            "NORMAL": 121,
            "TEXCOORD_0": 122
          },
          "mode": 4,
          "material": 4,
          "indices": 32
        }
      ]
    },
    {
      "name": "city_sample_canals_city_mat.001_0_0",
      "primitives": [
        {
          "attributes": {
            "POSITION": 123,
            "NORMAL": 124,
            "TEXCOORD_0": 125
          },
          "mode": 4,
          "material": 5,
          "indices": 33
        }
      ]
    },
    {
      "name": "city_sample_canals_city_mat.001_0_1",
      "primitives": [
        {
          "attributes": {
            "POSITION": 126,
            "NORMAL": 127,
            "TEXCOORD_0": 128
          },
          "mode": 4,
          "material": 5,
          "indices": 34
        }
      ]
    },
    {
      "name": "city_sample_earth_city_mat_0",
      "primitives": [
        {
          "attributes": {
            "POSITION": 129,
            "NORMAL": 130,
            "TEXCOORD_0": 131
          },
          "mode": 4,
          "material": 6,
          "indices": 35
        }
      ]
    }
  ],
  "nodes": [
    {
      "name": "6b6b8470edb647ec8ce5bab6e42e559e.fbx",
      "rotation": [
        0.7071067811865475,
        0,
        0,
        0.7071067811865476
      ],
      "children": [
        1
      ]
    },
    {
      "name": "RootNode",
      "children": [
        2,
        13,
        21,
        38,
        52,
        57,
        62
      ]
    },
    {
      "name": "city_sample_streets",
      "children": [
        3
      ]
    },
    {
      "name": "city_sample_streets",
      "children": [
        4,
        7,
        10
      ]
    },
    {
      "name": "city_sample_streets_city_mat.005_0",
      "children": [
        5,
        6
      ]
    },
    {
      "name": "city_sample_streets_city_mat.005_0_0",
      "mesh": 0
    },
    {
      "name": "city_sample_streets_city_mat.005_0_1",
      "mesh": 1
    },
    {
      "name": "city_sample_streets_city_mat.005_0",
      "children": [
        8,
        9
      ]
    },
    {
      "name": "city_sample_streets_city_mat.005_0_0",
      "mesh": 2
    },
    {
      "name": "city_sample_streets_city_mat.005_0_1",
      "mesh": 3
    },
    {
      "name": "city_sample_streets_city_mat.005_0",
      "children": [
        11,
        12
      ]
    },
    {
      "name": "city_sample_streets_city_mat.005_0_0",
      "mesh": 4
    },
    {
      "name": "city_sample_streets_city_mat.005_0_1",
      "mesh": 5
    },
    {
      "name": "city_sample_houses_3",
      "children": [
        14
      ]
    },
    {
      "name": "city_sample_houses_3",
      "children": [
        15,
        18
      ]
    },
    {
      "name": "city_sample_houses_3_city_mat.004_0",
      "children": [
        16,
        17
      ]
    },
    {
      "name": "city_sample_houses_3_city_mat.004_0_0",
      "mesh": 6
    },
    {
      "name": "city_sample_houses_3_city_mat.004_0_1",
      "mesh": 7
    },
    {
      "name": "city_sample_houses_3_city_mat.004_0",
      "children": [
        19,
        20
      ]
    },
    {
      "name": "city_sample_houses_3_city_mat.004_0_0",
      "mesh": 8
    },
    {
      "name": "city_sample_houses_3_city_mat.004_0_1",
      "mesh": 9
    },
    {
      "name": "city_sample_houses_2",
      "children": [
        22
      ]
    },
    {
      "name": "city_sample_houses_2",
      "children": [
        23,
        26,
        29,
        32,
        35
      ]
    },
    {
      "name": "city_sample_houses_2_city_mat.003_0",
      "children": [
        24,
        25
      ]
    },
    {
      "name": "city_sample_houses_2_city_mat.003_0_0",
      "mesh": 10
    },
    {
      "name": "city_sample_houses_2_city_mat.003_0_1",
      "mesh": 11
    },
    {
      "name": "city_sample_houses_2_city_mat.003_0",
      "children": [
        27,
        28
      ]
    },
    {
      "name": "city_sample_houses_2_city_mat.003_0_0",
      "mesh": 12
    },
    {
      "name": "city_sample_houses_2_city_mat.003_0_1",
      "mesh": 13
    },
    {
      "name": "city_sample_houses_2_city_mat.003_0",
      "children": [
        30,
        31
      ]
    },
    {
      "name": "city_sample_houses_2_city_mat.003_0_0",
      "mesh": 14
    },
    {
      "name": "city_sample_houses_2_city_mat.003_0_1",
      "mesh": 15
    },
    {
      "name": "city_sample_houses_2_city_mat.003_0",
      "children": [
        33,
        34
      ]
    },
    {
      "name": "city_sample_houses_2_city_mat.003_0_0",
      "mesh": 16
    },
    {
      "name": "city_sample_houses_2_city_mat.003_0_1",
      "mesh": 17
    },
    {
      "name": "city_sample_houses_2_city_mat.003_0",
      "children": [
        36,
        37
      ]
    },
    {
      "name": "city_sample_houses_2_city_mat.003_0_0",
      "mesh": 18
    },
    {
      "name": "city_sample_houses_2_city_mat.003_0_1",
      "mesh": 19
    },
    {
      "name": "city_sample_houses_1",
      "children": [
        39
      ]
    },
    {
      "name": "city_sample_houses_1",
      "children": [
        40,
        43,
        46,
        49
      ]
    },
    {
      "name": "city_sample_houses_1_city_mat.002_0",
      "children": [
        41,
        42
      ]
    },
    {
      "name": "city_sample_houses_1_city_mat.002_0_0",
      "mesh": 20
    },
    {
      "name": "city_sample_houses_1_city_mat.002_0_1",
      "mesh": 21
    },
    {
      "name": "city_sample_houses_1_city_mat.002_0",
      "children": [
        44,
        45
      ]
    },
    {
      "name": "city_sample_houses_1_city_mat.002_0_0",
      "mesh": 22
    },
    {
      "name": "city_sample_houses_1_city_mat.002_0_1",
      "mesh": 23
    },
    {
      "name": "city_sample_houses_1_city_mat.002_0",
      "children": [
        47,
        48
      ]
    },
    {
      "name": "city_sample_houses_1_city_mat.002_0_0",
      "mesh": 24
    },
    {
      "name": "city_sample_houses_1_city_mat.002_0_1",
      "mesh": 25
    },
    {
      "name": "city_sample_houses_1_city_mat.002_0",
      "children": [
        50,
        51
      ]
    },
    {
      "name": "city_sample_houses_1_city_mat.002_0_0",
      "mesh": 26
    },
    {
      "name": "city_sample_houses_1_city_mat.002_0_1",
      "mesh": 27
    },
    {
      "name": "city_sample_floor",
      "children": [
        53
      ]
    },
    {
      "name": "city_sample_floor",
      "children": [
        54
      ]
    },
    {
      "name": "city_sample_floor_sidewalk_mat_0",
      "children": [
        55,
        56
      ]
    },
    {
      "name": "city_sample_floor_sidewalk_mat_0_0",
      "mesh": 28
    },
    {
      "name": "city_sample_floor_sidewalk_mat_0_1",
      "mesh": 29
    },
    {
      "name": "city_sample_canals",
      "children": [
        58
      ]
    },
    {
      "name": "city_sample_canals",
      "children": [
        59
      ]
    },
    {
      "name": "city_sample_canals_city_mat.001_0",
      "children": [
        60,
        61
      ]
    },
    {
      "name": "city_sample_canals_city_mat.001_0_0",
      "mesh": 30
    },
    {
      "name": "city_sample_canals_city_mat.001_0_1",
      "mesh": 31
    },
    {
      "name": "city_sample_earth",
      "children": [
        63
      ]
    },
    {
      "name": "city_sample_earth",
      "children": [
        64
      ]
    },
    {
      "name": "city_sample_earth_city_mat_0",
      "mesh": 32
    },
    {
      "name": "Sketchfab_model",
      "translation": [
        431.71234130859375,
        1394.553466796875,
        -9881.556640625
      ],
      "rotation": [
        -0.47954353908920927,
        -0.06626805732054435,
        -0.1466112428560013,
        0.8626422683814612
      ],
      "children": [
        0
      ]
    }
  ],
  "scenes": [
    {
      "name": "Scene",
      "nodes": [
        65
      ]
    }
  ],
  "extensionsUsed": [
    "KHR_materials_specular"
  ]
}